<svg xmlns="http://www.w3.org/2000/svg" viewBox="0 0 512 512">
  <defs>
    <linearGradient id="bellMetal" x1="0" y1="0" x2="0.35" y2="1">
      <stop offset="0%" stop-color="#fffbe9"/>
      <stop offset="18%" stop-color="#ffe7a8"/>
      <stop offset="42%" stop-color="#dfb55e"/>
      <stop offset="68%" stop-color="#c28832"/>
      <stop offset="100%" stop-color="#7f4f15"/>
    </linearGradient>
    <linearGradient id="bellDark" x1="0" y1="0" x2="1" y2="1">
      <stop offset="0%" stop-color="#7b4c16"/>
      <stop offset="100%" stop-color="#2e1707"/>
    </linearGradient>
    <radialGradient id="highlight" cx="35%" cy="24%" r="55%">
      <stop offset="0%" stop-color="#fffde8" stop-opacity=".95"/>
      <stop offset="45%" stop-color="#fff2b0" stop-opacity=".35"/>
      <stop offset="100%" stop-color="#ffffff" stop-opacity="0"/>
    </radialGradient>
    <filter id="shadow" x="-30%" y="-30%" width="160%" height="180%">
      <feDropShadow dx="0" dy="18" stdDeviation="16" flood-color="#000" flood-opacity=".33"/>
    </filter>
  </defs>
  <g filter="url(#shadow)">
    <path d="M256 444c32 0 58-24 62-55H194c4 31 30 55 62 55Z" fill="url(#bellDark)"/>
    <path d="M366 365H146c13-15 25-42 25-96 0-39 11-73 31-100 19-26 46-45 78-53v-21c0-13-11-24-24-24s-24 11-24 24v4c0 13-11 24-24 24s-24-11-24-24v-4c0-40 32-72 72-72s72 32 72 72v21c32 8 59 27 78 53 20 27 31 61 31 100 0 54 12 81 25 96Z"
          fill="url(#bellMetal)" stroke="#5a330d" stroke-width="15" stroke-linejoin="round"/>
    <path d="M312 388c-5 26-28 45-56 45s-51-19-56-45h112Z" fill="#8b551b" opacity=".92"/>
    <path d="M256 88c-14 0-26 10-29 24 9-5 20-8 31-8 21 0 39 9 53 24-4-23-26-40-55-40Z" fill="#fff3bf" opacity=".75"/>
    <path d="M194 150c-18 21-29 52-29 90 0 30-4 58-11 79 16-28 24-58 24-91 0-33 9-61 26-84 17-23 41-39 68-46-31 3-58 20-78 52Z" fill="#fff8dc" opacity=".22"/>
    <ellipse cx="232" cy="186" rx="72" ry="120" fill="url(#highlight)"/>
    <path d="M147 365h219" stroke="#f9d78b" stroke-opacity=".45" stroke-width="7" stroke-linecap="round"/>
    <circle cx="256" cy="366" r="9" fill="#5b350f" opacity=".6"/>
  </g>
</svg>
